<svg width="192" height="122" viewBox="0 0 192 122" fill="none" xmlns="http://www.w3.org/2000/svg">
<rect width="192" height="58" rx="29" fill="#1E1E1E"/>
<path d="M50.384 37.456C50.384 42.496 47.36 46.48 37.376 46.48C25.568 46.48 22.064 41.248 22.064 33.328H26C26 41.344 30.272 43.12 37.376 43.12C43.136 43.12 46.448 41.728 46.448 37.648C46.448 32.512 40.496 31.456 35.12 29.872C28.448 27.856 23.6 26.032 23.6 20.032C23.6 14.848 27.248 11.68 35.6 11.68C45.584 11.68 48.992 17.776 48.992 23.296H45.056C45.056 17.536 40.784 15.04 35.6 15.04C30.944 15.04 27.536 16.192 27.536 19.936C27.536 23.488 30.512 24.784 36.08 26.512C42.704 28.576 50.384 30.4 50.384 37.456ZM65.3518 12.16C73.8958 12.16 79.3198 14.368 79.3198 23.2C79.3198 32.08 73.8958 34.336 65.3518 34.336H59.7838V46H55.8478V12.16H65.3518ZM59.7838 30.976H65.3998C71.1598 30.976 75.3838 29.92 75.3838 23.2C75.3838 16.576 71.1598 15.52 65.3998 15.52H59.7838V30.976ZM109.051 46H105.163L100.939 33.136H87.3065L83.0825 46H79.1465L90.3305 12.16H97.8665L109.051 46ZM93.5465 14.08L88.4105 29.776H99.8345L94.6505 14.08H93.5465ZM110.774 29.056C110.774 19.216 116.678 11.68 126.614 11.68C135.254 11.68 140.918 16.864 141.926 25.216H137.99C137.222 18.736 133.238 15.04 126.614 15.04C118.742 15.04 114.71 20.896 114.71 29.056C114.71 37.264 118.742 43.12 126.614 43.12C133.238 43.12 137.222 39.376 137.99 32.896H141.926C140.918 41.296 135.254 46.48 126.614 46.48C116.678 46.48 110.774 38.944 110.774 29.056ZM168.511 46H147.535V12.16H168.511V15.52H151.471V27.376H166.111V30.736H151.471V42.64H168.511V46Z" fill="white"/>
<rect width="190" height="58" transform="translate(1 64)" fill="#1E1E1E"/>
<path d="M26.44 110H22.504V76.16H33.736C41.8 76.16 46.936 78.032 46.936 85.616C46.936 90.704 44.296 92.96 40.648 93.584V94.736H44.68C46.6 94.736 47.368 95.504 47.368 97.28V110H43.432V96.416H26.44V110ZM26.44 79.52V93.056H33.736C39.496 93.056 43 92.48 43 86.288C43 80.048 39.496 79.52 33.736 79.52H26.44ZM82.2693 110H78.3813L74.1573 97.136H60.5253L56.3013 110H52.3652L63.5493 76.16H71.0853L82.2693 110ZM66.7653 78.08L61.6293 93.776H73.0533L67.8693 78.08H66.7653ZM97.7091 76.16C105.917 76.16 114.653 78.512 114.653 93.056C114.653 107.648 105.917 110 97.7091 110H86.9571V76.16H97.7091ZM90.8931 106.64H97.7091C103.709 106.64 110.717 105.584 110.717 93.056C110.717 80.576 103.709 79.52 97.7091 79.52H90.8931V106.64ZM136.049 76.16V79.52H128.513V106.64H136.049V110H116.993V106.64H124.577V79.52H116.993V76.16H136.049ZM138.18 93.056C138.18 83.216 144.036 75.68 154.02 75.68C163.908 75.68 169.764 83.216 169.764 93.056C169.764 102.944 163.908 110.48 154.02 110.48C144.036 110.48 138.18 102.944 138.18 93.056ZM142.116 93.056C142.116 101.168 146.004 107.12 154.02 107.12C161.988 107.12 165.828 101.168 165.828 93.056C165.828 84.992 161.988 79.04 154.02 79.04C146.004 79.04 142.116 84.992 142.116 93.056Z" fill="white"/>
</svg>
