<?xml version="1.0" encoding="UTF-8"?><svg id="Layer_1" xmlns="http://www.w3.org/2000/svg" viewBox="0 0 200 200"><defs><style>.cls-1{fill:#ff4e3c;stroke:#000;stroke-miterlimit:10;}.cls-2{stroke-width:0px;}</style></defs><circle class="cls-1" cx="40.84" cy="100" r="29.58"/><path class="cls-2" d="m23.5,99.92c0-9.56,7.74-17.22,17.37-17.22s17.29,7.66,17.29,17.22-7.74,17.37-17.29,17.37-17.37-7.66-17.37-17.37Zm32.39,0c0-8.27-6.75-14.94-15.02-14.94s-15.1,6.68-15.1,14.94,6.75,15.1,15.1,15.1,15.02-6.68,15.02-15.1Z"/><circle class="cls-1" cx="100" cy="100" r="29.58"/><path class="cls-2" d="m82.67,99.92c0-9.56,7.74-17.22,17.37-17.22s17.29,7.66,17.29,17.22-7.74,17.37-17.29,17.37-17.37-7.66-17.37-17.37Zm32.39,0c0-8.27-6.75-14.94-15.02-14.94s-15.1,6.68-15.1,14.94,6.75,15.1,15.1,15.1,15.02-6.68,15.02-15.1Z"/><circle class="cls-1" cx="159.16" cy="100" r="29.58"/><path class="cls-2" d="m141.83,99.92c0-9.56,7.74-17.22,17.37-17.22s17.29,7.66,17.29,17.22-7.74,17.37-17.29,17.37-17.37-7.66-17.37-17.37Zm32.39,0c0-8.27-6.75-14.94-15.02-14.94s-15.1,6.68-15.1,14.94,6.75,15.1,15.1,15.1,15.02-6.68,15.02-15.1Z"/></svg>